<svg width="20" height="21" viewBox="0 0 20 21" fill="none" xmlns="http://www.w3.org/2000/svg">
<path d="M12.9435 19.5881V2.41211C12.9435 1.85982 12.4958 1.41211 11.9435 1.41211H7.88528C7.333 1.41211 6.88528 1.85982 6.88528 2.41211V19.5881M12.9435 19.5881L12.9419 9.26827C12.9418 8.71592 13.3896 8.26811 13.9419 8.26811H18C18.5523 8.26811 19 8.71582 19 9.26811V18.5881C19 19.1404 18.5523 19.5881 18 19.5881H12.9435ZM12.9435 19.5881H6.88528M6.88528 19.5881V14.5881C6.88528 14.0358 6.43757 13.5881 5.88528 13.5881H2C1.44771 13.5881 0.999999 14.0358 0.999999 14.5881V18.5881C0.999999 19.1404 1.44771 19.5881 2 19.5881H6.88528Z" stroke="#F8F9FA" stroke-width="2" stroke-linecap="round" stroke-linejoin="round"/>
</svg>
