<svg width="22" height="23" viewBox="0 0 22 23" fill="none" xmlns="http://www.w3.org/2000/svg">
<path d="M18.4651 1.8999C19.6433 1.8999 20.5984 2.84194 20.5984 4.00401L20.5984 7.59583C20.5984 8.7579 19.6433 9.69994 18.4651 9.69994H15.2651C14.0869 9.69994 13.1318 8.7579 13.1318 7.59583L13.1318 4.00401C13.1318 2.84194 14.0869 1.8999 15.2651 1.8999L18.4651 1.8999Z" stroke="#F8F9FA" stroke-width="2" stroke-linecap="round" stroke-linejoin="round"/>
<path d="M3.53177 1.8999C2.35356 1.8999 1.39844 2.84194 1.39844 4.00401L1.39845 7.59583C1.39845 8.7579 2.35357 9.69994 3.53178 9.69994H6.73178C7.90999 9.69994 8.86511 8.7579 8.86511 7.59583L8.8651 4.00401C8.8651 2.84194 7.90998 1.8999 6.73177 1.8999L3.53177 1.8999Z" stroke="#F8F9FA" stroke-width="2" stroke-linecap="round" stroke-linejoin="round"/>
<path d="M18.4651 13.2999C19.6433 13.2999 20.5984 14.242 20.5984 15.4041V18.9958C20.5984 20.1579 19.6433 21.0999 18.4651 21.0999H15.2651C14.0869 21.0999 13.1318 20.1579 13.1318 18.9958L13.1318 15.4041C13.1318 14.242 14.0869 13.2999 15.2651 13.2999H18.4651Z" stroke="#F8F9FA" stroke-width="2" stroke-linecap="round" stroke-linejoin="round"/>
<path d="M3.53178 13.2999C2.35357 13.2999 1.39845 14.242 1.39845 15.4041L1.39845 18.9958C1.39845 20.1579 2.35357 21.0999 3.53178 21.0999H6.73178C7.90999 21.0999 8.86511 20.1579 8.86511 18.9958L8.86511 15.4041C8.86511 14.242 7.90998 13.2999 6.73178 13.2999H3.53178Z" stroke="#F8F9FA" stroke-width="2" stroke-linecap="round" stroke-linejoin="round"/>
</svg>
